<svg width="19" height="19" viewBox="0 0 19 19" fill="none" xmlns="http://www.w3.org/2000/svg">
<path d="M7.59882 15.0874L7.59883 15.0874C7.84059 14.9505 8.03204 14.7579 8.18329 14.6058C8.19702 14.5919 8.21042 14.5785 8.2235 14.5654L13.7693 9.01961L13.7949 8.99397C13.9973 8.79168 14.1943 8.59473 14.345 8.41328C14.5113 8.21322 14.6863 7.95801 14.7724 7.62333C14.8565 7.29643 14.8565 6.95357 14.7724 6.62667C14.6863 6.29199 14.5113 6.03678 14.345 5.83672C14.1943 5.65527 13.9973 5.45832 13.7949 5.25603L13.7693 5.23039L13.7436 5.20475C13.5414 5.00241 13.3444 4.80541 13.163 4.65463C12.9629 4.48839 12.7077 4.3134 12.373 4.22729C12.0461 4.14319 11.7032 4.14319 11.3763 4.22729C11.0417 4.3134 10.7865 4.48839 10.5864 4.65463C10.4049 4.80541 10.208 5.00241 10.0057 5.20476C9.99716 5.2133 9.98862 5.22184 9.98007 5.23039L4.43428 10.7762C4.42121 10.7893 4.40773 10.8027 4.39391 10.8164C4.24174 10.9676 4.04912 11.1591 3.91224 11.4009C3.77535 11.6426 3.71029 11.9063 3.65888 12.1146C3.65421 12.1335 3.64966 12.152 3.64518 12.1699L3.18998 13.9907C3.18718 14.0019 3.18425 14.0135 3.18123 14.0255C3.14441 14.172 3.09341 14.3749 3.07584 14.5545C3.05562 14.7612 3.04894 15.2132 3.41772 15.582C3.78649 15.9507 4.23845 15.9441 4.44515 15.9238C4.62476 15.9063 4.82768 15.8553 4.97416 15.8184C4.98617 15.8154 4.99779 15.8125 5.00899 15.8097L6.82978 15.3545C6.84772 15.35 6.86617 15.3455 6.88508 15.3408C7.09339 15.2894 7.35705 15.2243 7.59882 15.0874Z" stroke="white" stroke-width="2"/>
<path d="M9.89551 5.9375L12.2705 4.35416L14.6455 6.72916L13.0622 9.10416L9.89551 5.9375Z" fill="white"/>
</svg>
