<svg width="19" height="19" viewBox="0 0 19 19" fill="none" xmlns="http://www.w3.org/2000/svg">
<path d="M14.5294 11.0833H14.7778C15.573 11.0833 15.9705 11.0833 16.2424 10.87C16.3054 10.8206 16.3622 10.7637 16.4117 10.7007C16.625 10.4289 16.625 10.0313 16.625 9.23611V9.23611C16.625 7.64575 16.625 6.85057 16.1983 6.30691C16.0994 6.1809 15.9858 6.06723 15.8598 5.96833C15.3161 5.54166 14.5209 5.54166 12.9306 5.54166H6.375C4.48938 5.54166 3.54657 5.54166 2.96079 6.12745C2.375 6.71324 2.375 7.65605 2.375 9.54166V10.0833C2.375 10.5547 2.375 10.7904 2.52145 10.9369C2.66789 11.0833 2.9036 11.0833 3.375 11.0833H4.47059" stroke="white" stroke-width="2"/>
<path d="M4.75 15.9313L4.75 9.91667C4.75 8.97386 4.75 8.50245 5.04289 8.20956C5.33579 7.91667 5.80719 7.91667 6.75 7.91667L12.25 7.91667C13.1928 7.91667 13.6642 7.91667 13.9571 8.20956C14.25 8.50245 14.25 8.97386 14.25 9.91667L14.25 15.9313C14.25 16.2478 14.25 16.4061 14.1462 16.481C14.0424 16.5558 13.8922 16.5057 13.5919 16.4056L12.0331 15.886C11.9548 15.8599 11.9156 15.8469 11.875 15.8469C11.8344 15.8469 11.7952 15.8599 11.7169 15.886L9.65811 16.5723C9.57975 16.5984 9.54057 16.6115 9.5 16.6115C9.45943 16.6115 9.42025 16.5984 9.34189 16.5723L7.28311 15.886C7.20475 15.8599 7.16557 15.8469 7.125 15.8469C7.08443 15.8469 7.04525 15.8599 6.96689 15.886L5.40811 16.4056C5.1078 16.5057 4.95764 16.5558 4.85382 16.481C4.75 16.4061 4.75 16.2478 4.75 15.9313Z" stroke="white" stroke-width="2"/>
<path d="M14.25 5.54167V5.255C14.25 4.24691 14.25 3.74286 14.0538 3.35782C13.8812 3.01913 13.6059 2.74376 13.2672 2.57119C12.8821 2.375 12.3781 2.375 11.37 2.375H7.63C6.62191 2.375 6.11786 2.375 5.73282 2.57119C5.39413 2.74376 5.11876 3.01913 4.94619 3.35782C4.75 3.74286 4.75 4.24691 4.75 5.255V5.54167" stroke="white" stroke-width="2"/>
<path d="M7.91699 11.0833L10.292 11.0833" stroke="white" stroke-width="2" stroke-linecap="round"/>
<path d="M7.91699 13.4583L11.4795 13.4583" stroke="white" stroke-width="2" stroke-linecap="round"/>
</svg>
